:FULLY-SPECIFIED
:FORCE-ALL-JOINTS-BE-3DOF
:DEGREES
437
root 10.441 17.1973 25.3703 6.19566 -0.699154 -1.67723
lfemur -30.2683 3.06942 -22.6902
ltibia 26.331 0 0
lfoot -10.4456 6.58834 0
ltoes -5.37696 0 0
rfemur -2.59493 -0.869584 23.4104
rtibia 44.7858 0 0
rfoot -5.28403 -2.758 0
rtoes -19.5602 0 0
lowerback -6.74735 0.899303 -0.209552
upperback -1.33913 1.06553 2.18026
thorax 2.41127 0.543824 2.55488
lowerneck -20.2848 -4.92207 -12.5106
upperneck 23.2879 -6.01147 11.4845
head 11.7504 -2.42937 5.44047
lclavicle -3.41528e-14 -8.15665e-15 0
lhumerus -36.7918 -9.58153 92.0863
lradius 21.454 0 0
lwrist -2.08791 0 0
lhand -8.94679 -22.2963 0
lfingers 7.12502 0 0
lthumb 16.9972 6.97322 0
rclavicle -3.41528e-14 -8.15665e-15 0
rhumerus -39.7364 11.7784 -88.0977
rradius 35.1456 0 0
rwrist -13.1883 0 0
rhand -30.0695 -29.799 0
rfingers 7.12502 0 0
rthumb -3.38455 -59.7515 0
438
root 10.4641 17.215 25.5146 6.12216 -0.610177 -1.36723
lfemur -29.5545 3.1499 -23.1733
ltibia 26.5315 0 0
lfoot -10.6218 6.44098 0
ltoes -4.92823 0 0
rfemur -3.87685 -1.10876 22.9497
rtibia 46.8077 0 0
rfoot -5.44419 -3.21362 0
rtoes -19.6877 0 0
lowerback -6.63541 0.755001 -0.413267
upperback -1.36514 0.894513 2.11127
thorax 2.3246 0.457511 2.57761
lowerneck -20.3385 -4.86027 -12.467
upperneck 23.3659 -5.91666 11.4095
head 11.7715 -2.39052 5.42272
lclavicle -3.54618e-14 -7.35018e-15 0
lhumerus -35.9456 -9.69961 91.9263
lradius 21.2872 0 0
lwrist -2.37623 0 0
lhand -9.11353 -22.3694 0
lfingers 7.12502 0 0
lthumb 16.8367 6.91388 0
rclavicle -3.54618e-14 -7.35018e-15 0
rhumerus -40.176 11.7049 -88.1323
rradius 35.0655 0 0
rwrist -13.1029 0 0
rhand -30.1091 -30.0259 0
rfingers 7.12502 0 0
rthumb -3.42282 -59.9778 0
439
root 10.4873 17.2327 25.659 6.04965 -0.519885 -1.06097
lfemur -28.8336 3.22788 -23.6481
ltibia 26.7162 0 0
lfoot -10.7971 6.29645 0
ltoes -4.48548 0 0
rfemur -5.15054 -1.33386 22.4915
rtibia 48.7713 0 0
rfoot -5.61445 -3.66103 0
rtoes -19.8012 0 0
lowerback -6.52556 0.610819 -0.615042
upperback -1.3898 0.723418 2.04337
thorax 2.24083 0.371116 2.60038
lowerneck -20.3922 -4.7987 -12.4231
upperneck 23.4429 -5.82278 11.3361
head 11.7925 -2.35186 5.40541
lclavicle -3.67058e-14 -6.5497e-15 0
lhumerus -35.1079 -9.82341 91.7674
lradius 21.1321 0 0
lwrist -2.65202 0 0
lhand -9.27975 -22.4429 0
lfingers 7.12502 0 0
lthumb 16.6767 6.85413 0
rclavicle -3.67058e-14 -6.5497e-15 0
rhumerus -40.6103 11.6314 -88.1645
rradius 34.9886 0 0
rwrist -13.0233 0 0
rhand -30.1473 -30.2434 0
rfingers 7.12502 0 0
rthumb -3.4597 -60.1948 0
440
root 10.5104 17.2503 25.8033 5.97837 -0.428565 -0.7594
lfemur -28.1067 3.30287 -24.1129
ltibia 26.8823 0 0
lfoot -10.971 6.15514 0
ltoes -4.05036 0 0
rfemur -6.41205 -1.54349 22.0368
rtibia 50.6679 0 0
rfoot -5.79476 -4.09875 0
rtoes -19.8995 0 0
lowerback -6.41826 0.467132 -0.814267
upperback -1.41295 0.552668 1.97677
thorax 2.16038 0.284851 2.62314
lowerneck -20.4455 -4.73749 -12.3789
upperneck 23.5189 -5.73002 11.2647
head 11.8133 -2.31344 5.38859
lclavicle -3.78777e-14 -5.75638e-15 0
lhumerus -34.2811 -9.95279 91.6097
lradius 20.9899 0 0
lwrist -2.91416 0 0
lhand -9.44483 -22.5165 0
lfingers 7.12502 0 0
lthumb 16.5178 6.79403 0
rclavicle -3.78777e-14 -5.75638e-15 0
rhumerus -41.0383 11.5579 -88.1942
rradius 34.9148 0 0
rwrist -12.9497 0 0
rhand -30.1838 -30.4506 0
rfingers 7.12502 0 0
rthumb -3.49497 -60.4015 0
441
root 10.5336 17.268 25.9476 5.90858 -0.336504 -0.463491
lfemur -27.3748 3.37443 -24.5662
ltibia 27.0271 0 0
lfoot -11.1427 6.01742 0
ltoes -3.62451 0 0
rfemur -7.65741 -1.73625 21.5866
rtibia 52.4888 0 0
rfoot -5.98504 -4.52525 0
rtoes -19.9811 0 0
lowerback -6.31397 0.32431 -1.01033
upperback -1.43446 0.382689 1.91171
thorax 2.08369 0.198929 2.64584
lowerneck -20.4986 -4.67675 -12.3345
upperneck 23.5937 -5.63861 11.1956
head 11.8338 -2.27535 5.37235
lclavicle -3.89705e-14 -4.97139e-15 0
lhumerus -33.4672 -10.0876 91.4534
lradius 20.8616 0 0
lwrist -3.16149 0 0
lhand -9.60819 -22.5902 0
lfingers 7.12502 0 0
lthumb 16.3605 6.73368 0
rclavicle -3.89705e-14 -4.97139e-15 0
rhumerus -41.4586 11.4844 -88.2211
rradius 34.8444 0 0
rwrist -12.8824 0 0
rhand -30.2184 -30.6464 0
rfingers 7.12502 0 0
rthumb -3.5284 -60.5968 0
442
root 10.5567 17.2857 26.092 5.84051 -0.243988 -0.174196
lfemur -26.6387 3.44207 -25.0064
ltibia 27.1477 0 0
lfoot -11.3117 5.8837 0
ltoes -3.20957 0 0
rfemur -8.88265 -1.91074 21.1421
rtibia 54.2256 0 0
rfoot -6.18523 -4.93905 0
rtoes -20.0448 0 0
lowerback -6.21314 0.182727 -1.20263
upperback -1.45417 0.213908 1.84841
thorax 2.01117 0.113562 2.66842
lowerneck -20.5512 -4.61659 -12.29
upperneck 23.6669 -5.54876 11.1289
head 11.8541 -2.23767 5.35675
lclavicle -3.9977e-14 -4.19586e-15 0
lhumerus -32.6687 -10.2277 91.2988
lradius 20.7482 0 0
lwrist -3.3929 0 0
lhand -9.76921 -22.6639 0
lfingers 7.12502 0 0
lthumb 16.2055 6.67314 0
rclavicle -3.9977e-14 -4.19586e-15 0
rhumerus -41.8701 11.4108 -88.2453
rradius 34.7775 0 0
rwrist -12.8217 0 0
rhand -30.2509 -30.8298 0
rfingers 7.12502 0 0
rthumb -3.55979 -60.7796 0
443
root 10.5799 17.3033 26.2363 5.77441 -0.151306 0.107527
lfemur -25.8994 3.50535 -25.4319
ltibia 27.2413 0 0
lfoot -11.4773 5.75436 0
ltoes -2.80717 0 0
rfemur -10.0838 -2.06557 20.7043
rtibia 55.8695 0 0
rfoot -6.39527 -5.33864 0
rtoes -20.0893 0 0
lowerback -6.11623 0.0427554 -1.39055
upperback -1.47194 0.0467517 1.78709
thorax 1.94325 0.0289632 2.69083
lowerneck -20.6031 -4.55713 -12.2454
upperneck 23.7386 -5.46069 11.065
head 11.8741 -2.20046 5.34187
lclavicle -4.08902e-14 -3.43098e-15 0
lhumerus -31.8878 -10.373 91.1461
lradius 20.6508 0 0
lwrist -3.60725 0 0
lhand -9.9273 -22.7374 0
lfingers 7.12502 0 0
lthumb 16.0533 6.61251 0
rclavicle -4.08902e-14 -3.43098e-15 0
rhumerus -42.2715 11.3372 -88.2664
rradius 34.7141 0 0
rwrist -12.7681 0 0
rhand -30.2811 -30.9996 0
rfingers 7.12502 0 0
rthumb -3.58889 -60.949 0
444
root 10.603 17.321 26.3806 5.71052 -0.0587437 0.380719
lfemur -25.1581 3.56379 -25.8411
ltibia 27.3052 0 0
lfoot -11.639 5.62979 0
ltoes -2.41895 0 0
rfemur -11.2569 -2.19933 20.2742
rtibia 57.4119 0 0
rfoot -6.61508 -5.72252 0
rtoes -20.1133 0 0
lowerback -6.02369 -0.0952328 -1.57349
upperback -1.48761 -0.118353 1.72797
thorax 1.88037 -0.0546553 2.713
lowerneck -20.6544 -4.49848 -12.2008
upperneck 23.8083 -5.37461 11.0041
head 11.8937 -2.1638 5.32778
lclavicle -4.17029e-14 -2.67789e-15 0
lhumerus -31.1268 -10.5233 90.9957
lradius 20.5704 0 0
lwrist -3.80339 0 0
lhand -10.0818 -22.8105 0
lfingers 7.12502 0 0
lthumb 15.9045 6.55185 0
rclavicle -4.17029e-14 -2.67789e-15 0
rhumerus -42.6617 11.2634 -88.2845
rradius 34.6545 0 0
rwrist -12.7217 0 0
rhand -30.3086 -31.1549 0
rfingers 7.12502 0 0
rthumb -3.61551 -61.1039 0
445
root 10.6262 17.3387 26.525 5.64908 0.0334119 0.644422
lfemur -24.4155 3.61692 -26.2325
ltibia 27.3366 0 0
lfoot -11.7961 5.51037 0
ltoes -2.04655 0 0
rfemur -12.398 -2.31063 19.853
rtibia 58.8441 0 0
rfoot -6.8446 -6.08919 0
rtoes -20.1154 0 0
lowerback -5.93598 -0.230865 -1.75083
upperback -1.50105 -0.280981 1.6713
thorax 1.82294 -0.137081 2.73489
lowerneck -20.7047 -4.44076 -12.1564
upperneck 23.8761 -5.29073 10.9464
head 11.9129 -2.12777 5.31455
lclavicle -4.24081e-14 -1.93776e-15 0
lhumerus -30.3879 -10.6785 90.8476
lradius 20.508 0 0
lwrist -3.98021 0 0
lhand -10.2323 -22.8832 0
lfingers 7.12502 0 0
lthumb 15.7597 6.49125 0
rclavicle -4.24081e-14 -1.93776e-15 0
rhumerus -43.0394 11.1895 -88.2994
rradius 34.5988 0 0
rwrist -12.683 0 0
rhand -30.3334 -31.2945 0
rfingers 7.12502 0 0
rthumb -3.6394 -61.2432 0
446
root 10.6493 17.3563 26.6693 5.59034 0.124874 0.897679
lfemur -23.6728 3.66428 -26.6045
ltibia 27.3326 0 0
lfoot -11.9481 5.3965 0
ltoes -1.69161 0 0
rfemur -13.5031 -2.39808 19.4415
rtibia 60.1576 0 0
rfoot -7.08377 -6.43714 0
rtoes -20.0944 0 0
lowerback -5.85357 -0.363768 -1.92196
upperback -1.5121 -0.440704 1.61727
thorax 1.7714 -0.218101 2.75644
lowerneck -20.7542 -4.38407 -12.112
upperneck 23.9415 -5.20927 10.8923
head 11.9316 -2.09244 5.30225
lclavicle -4.29988e-14 -1.21175e-15 0
lhumerus -29.6734 -10.8384 90.7022
lradius 20.4648 0 0
lwrist -4.13655 0 0
lhand -10.3779 -22.9553 0
lfingers 7.12502 0 0
lthumb 15.6195 6.4308 0
rclavicle -4.29988e-14 -1.21175e-15 0
rhumerus -43.4033 11.1154 -88.3108
rradius 34.547 0 0
rwrist -12.6523 0 0
rhand -30.3551 -31.4175 0
rfingers 7.12502 0 0
rthumb -3.66036 -61.3658 0
